<svg xmlns="http://www.w3.org/2000/svg" xmlns:xlink="http://www.w3.org/1999/xlink" viewBox="0 0 1080 1080"><defs><style>.cls-1{fill:#f0f7fe;}.cls-2{fill:#d2e6fa;}.cls-10,.cls-11,.cls-12,.cls-13,.cls-14,.cls-15,.cls-16,.cls-17,.cls-18,.cls-19,.cls-2,.cls-20,.cls-22,.cls-23,.cls-24,.cls-25,.cls-26,.cls-27,.cls-28,.cls-29,.cls-3,.cls-30,.cls-31,.cls-32,.cls-33,.cls-35,.cls-36,.cls-37,.cls-40,.cls-41,.cls-42,.cls-43,.cls-47,.cls-5,.cls-6,.cls-7,.cls-8,.cls-9{fill-rule:evenodd;}.cls-3{fill:#c6ddfd;}.cls-38,.cls-39,.cls-4,.cls-45,.cls-46,.cls-49,.cls-50,.cls-52{fill:none;}.cls-4{stroke:#201d40;stroke-width:10px;}.cls-38,.cls-39,.cls-4,.cls-45,.cls-46,.cls-49,.cls-5,.cls-50,.cls-52{stroke-linecap:round;stroke-linejoin:round;}.cls-33,.cls-48,.cls-5{fill:#fff;}.cls-5{stroke:#4496ea;}.cls-46,.cls-49,.cls-5,.cls-52{stroke-width:4px;}.cls-6{fill:#5e56b2;}.cls-51,.cls-7,.cls-8{fill:#201d40;}.cls-7{fill-opacity:0.5;}.cls-9{fill:#4496ea;}.cls-10{fill:#0760dd;fill-opacity:0.25;}.cls-11{fill:#9bc3ba;}.cls-12{fill:#71aa9d;}.cls-13{fill:url(#linear-gradient);}.cls-14{fill:#151953;}.cls-15{fill:url(#linear-gradient-2);}.cls-16{fill:#1a1f67;}.cls-17{fill:#276fdc;}.cls-18{fill:url(#linear-gradient-3);}.cls-19,.cls-21{fill:#221c40;}.cls-20{fill:#c4e7ff;}.cls-22{fill:url(#linear-gradient-4);}.cls-23{fill:#1f5ebe;}.cls-24{fill:#dd5a2f;}.cls-25{fill:url(#linear-gradient-5);}.cls-26{fill:url(#linear-gradient-6);}.cls-27{fill:url(#linear-gradient-7);}.cls-28{fill:#f98364;}.cls-29{fill:url(#linear-gradient-8);}.cls-30{fill:#0c6ef8;}.cls-31{fill:url(#linear-gradient-9);}.cls-32{fill:#2685e6;}.cls-34{fill:#d3e2f8;}.cls-35{fill:#96b9ee;fill-opacity:0.42;}.cls-36{fill:#ffa393;}.cls-37{fill:#ffcec5;}.cls-38,.cls-39{stroke:#151953;}.cls-38,.cls-45{stroke-width:4.17px;}.cls-39{stroke-width:4.16px;}.cls-40{fill:#ffe5db;}.cls-41{fill:#e1233d;}.cls-42{fill:url(#linear-gradient-10);}.cls-43{fill:#e5805f;}.cls-44{fill:#f4003d;}.cls-45{stroke:#276fdc;}.cls-46{stroke:#ff9c83;}.cls-47{fill:#a2cbf5;}.cls-49{stroke:#f98364;}.cls-50{stroke:#221c40;stroke-width:3px;}.cls-52{stroke:#f64719;}</style><linearGradient id="linear-gradient" x1="-0.97" y1="1080.86" x2="-0.47" y2="1080.86" gradientTransform="matrix(275.66, 387.97, 387.97, -275.66, -418535.26, 298989.06)" gradientUnits="userSpaceOnUse"><stop offset="0" stop-color="#212784"/><stop offset="1" stop-color="#060a4b"/></linearGradient><linearGradient id="linear-gradient-2" x1="-0.53" y1="1079.51" x2="-0.04" y2="1079.51" gradientTransform="matrix(-46.36, 475.75, 475.75, 46.36, -513163.44, -49081.92)" xlink:href="#linear-gradient"/><linearGradient id="linear-gradient-3" x1="9.91" y1="1078.96" x2="10.41" y2="1078.96" gradientTransform="matrix(-81.36, -38.88, -38.88, 81.36, 43363.18, -86972.9)" gradientUnits="userSpaceOnUse"><stop offset="0" stop-color="#e5805f"/><stop offset="1" stop-color="#cd3503"/></linearGradient><linearGradient id="linear-gradient-4" x1="-0.38" y1="1080.55" x2="0.11" y2="1080.55" gradientTransform="matrix(179.3, 431.41, 431.42, -179.3, -465704.57, 194362.63)" gradientUnits="userSpaceOnUse"><stop offset="0" stop-color="#4496ea"/><stop offset="1" stop-color="#0034a7"/></linearGradient><linearGradient id="linear-gradient-5" x1="1.73" y1="1077.91" x2="2.22" y2="1077.9" gradientTransform="matrix(-168.75, 115.57, 113.71, 171.51, -121833.99, -184678.83)" gradientUnits="userSpaceOnUse"><stop offset="0" stop-color="#ffcec5"/><stop offset="1" stop-color="#ff5738"/></linearGradient><linearGradient id="linear-gradient-6" x1="-5.31" y1="1082.5" x2="-4.82" y2="1082.5" gradientTransform="matrix(73.9, 40.81, 40.81, -73.9, -43420.68, 80515.76)" xlink:href="#linear-gradient-3"/><linearGradient id="linear-gradient-7" x1="3.9" y1="1082.66" x2="4.39" y2="1082.69" gradientTransform="matrix(-55.16, -177.53, -166.13, 61.99, 180498.01, -66084.67)" xlink:href="#linear-gradient-5"/><linearGradient id="linear-gradient-8" x1="-0.78" y1="1079.48" x2="-0.29" y2="1079.48" gradientTransform="matrix(-5.12, 445.38, 445.39, 5.12, -480166.33, -4444.92)" gradientUnits="userSpaceOnUse"><stop offset="0" stop-color="#599cfa"/><stop offset="1" stop-color="#c1dbff"/></linearGradient><linearGradient id="linear-gradient-9" x1="-0.05" y1="1081.5" x2="0.44" y2="1081.5" gradientTransform="matrix(675.8, 289.65, 289.66, -675.79, -312691.25, 731424.96)" gradientUnits="userSpaceOnUse"><stop offset="0" stop-color="#4496ea"/><stop offset="1" stop-color="#b0d7ff"/></linearGradient><linearGradient id="linear-gradient-10" x1="0.35" y1="1079.66" x2="0.85" y2="1079.66" gradientTransform="matrix(-54.22, 400.06, 379.12, 52.65, -408877.17, -56716.33)" xlink:href="#linear-gradient-5"/></defs><g id="Background"><circle class="cls-1" cx="540" cy="519.62" r="456.28"/><path class="cls-2" d="M224.28,190.32V716.74H193.09V223.35Q207.87,206.07,224.28,190.32Z"/><path class="cls-2" d="M863,197.47V716.74H831.8V168.94Q848.06,182.49,863,197.47Z"/><path class="cls-2" d="M118.59,694.75H961.41C892.68,859.77,729.8,975.91,540,975.91S187.32,859.77,118.59,694.75Z"/></g><g id="Main_Layer" data-name="Main Layer"><path class="cls-3" d="M227,975.91c0-16.66,70.08-30.18,156.41-30.18s156.41,13.52,156.41,30.18-70.08,30.17-156.41,30.17S227,992.56,227,975.91Z"/><path class="cls-3" d="M388.06,975.91c0-22.5,102.91-40.76,229.67-40.76S847.4,953.41,847.4,975.91s-102.91,40.75-229.67,40.75S388.06,998.4,388.06,975.91Z"/><path class="cls-4" d="M271.6,838.67c0-11.9,47.35-21.56,105.66-21.56s105.66,9.66,105.66,21.56-47.35,21.56-105.66,21.56S271.6,850.57,271.6,838.67Z"/><path class="cls-5" d="M889.14,140a14.56,14.56,0,0,1,14.57,14.56v228a14.57,14.57,0,0,1-14.57,14.57H690.66a14.57,14.57,0,0,1-14.57-14.57v-228A14.57,14.57,0,0,1,690.66,140Z"/><path class="cls-6" d="M275,715.63s-18.13,226.09-20.6,256.83a3.2,3.2,0,0,0,3.18,3.45h8.23a3.19,3.19,0,0,0,3.16-2.79c3.54-27.49,32.11-249.5,32.11-249.5Z"/><path class="cls-6" d="M363.53,732.32s4.07,233.84,4.59,263.75a3.19,3.19,0,0,0,3.19,3.13h8.26a3.2,3.2,0,0,0,3.19-3.09c.93-29.72,8.23-263.79,8.23-263.79Z"/><path class="cls-7" d="M390.16,758.91h-1.09c-8.57,0-17-.17-25.09-.47l-.45-26.13H391Z"/><path class="cls-6" d="M473.42,715.63S491.56,941.72,494,972.46a3.2,3.2,0,0,1-.83,2.42,3.23,3.23,0,0,1-2.35,1h-8.22a3.2,3.2,0,0,1-3.17-2.79c-3.54-27.49-32.11-249.5-32.11-249.5Z"/><path class="cls-8" d="M525.83,698.29v11.4c0,15.4-61.28,27.91-136.76,27.91s-136.76-12.51-136.76-27.91v-11.4c0-15.4,61.28-27.9,136.76-27.9S525.83,682.89,525.83,698.29Z"/><path class="cls-7" d="M451.49,755.84l-4.15-32.22,26.08-8,3,36.85C468.74,753.78,460.4,754.91,451.49,755.84Z"/><path class="cls-7" d="M297.46,751.72a189.09,189.09,0,0,1-24.86-6.09l2.4-30,26.08,8Z"/><path class="cls-9" d="M252.31,698.29c0-15.4,61.28-27.9,136.76-27.9s136.76,12.5,136.76,27.9S464.55,726.2,389.07,726.2,252.31,713.69,252.31,698.29Z"/><path class="cls-10" d="M305.31,676.24c7.48,11.35,19.8,26,45.63,30.55,30.5,5.38,80.4,10.48,112.84,14.87,37.35-5,62-13.59,62-23.37,0-15.4-61.27-27.9-136.75-27.9C357.52,670.39,328.46,672.57,305.31,676.24Z"/><path class="cls-8" d="M360.68,303.44s-16.33-1.6-35.24,21.92-37.23,88.72-37.23,88.72,64.89,3.19,102.39-30.91S403.87,334,403.87,334Z"/><path class="cls-11" d="M621.1,841,636.16,889a19.55,19.55,0,0,0,20.32,13.62c28.29-2.39,53.66-4.84,85.64-13.74,15.88-4.41,30.94-13.41,36.17-24.9,3.57-7.83-6.13-28.23-21.82-29.38l-65.56-5.49Z"/><path class="cls-8" d="M635.88,888.08c5.14,1.66,11.6,3,17.46,2.19,12.21-1.74,69.77-8.93,83.28-15.26,12.81-6,29.34-12.37,39.57-25.45,2.74,5.43,3.62,11.05,2.1,14.38-5.23,11.49-20.29,20.49-36.17,24.9-32,8.9-57.35,11.35-85.64,13.74A19.55,19.55,0,0,1,636.16,889Z"/><path class="cls-9" d="M516.68,970.83c0-11.48,46.79-20.8,104.42-20.8s104.42,9.32,104.42,20.8-46.79,20.79-104.42,20.79S516.68,982.3,516.68,970.83Z"/><path class="cls-11" d="M439.71,915a328.63,328.63,0,0,0-9.9,46.33,19.52,19.52,0,0,0,12.63,21.14c27.72,10.3,54.74,21,87.69,26.12,16.28,2.55,33.71.59,43.23-7.71,6.48-5.65,6.08-28.24-7.72-35.78L511,928.6Z"/><path class="cls-12" d="M513,929.94l-2-1.34L439.71,915q-1.95,6.56-3.56,13.19c6.14,6.22,17.69,13.2,38.89,14.2C497.28,943.41,508,936.31,513,929.94Z"/><path class="cls-8" d="M431.52,950.55c2,5.64,5.88,12.94,13.11,16,12.56,5.23,77.7,32.18,97.58,30.09,15.11-1.6,28.25-4.24,35.19-9.67.23,6.07-1.29,11.53-4,13.93-9.52,8.3-27,10.26-43.23,7.71-32.95-5.15-60-15.82-87.69-26.12a19.52,19.52,0,0,1-12.63-21.14C430.34,957.7,430.9,954.12,431.52,950.55Z"/><path class="cls-13" d="M377.26,616.63s5.42,71.58,45,78.79,135-11.95,135-11.95l54,150.89s12.78,15.93,42.63,13.52S700.07,830,700.07,830l-52.87-194s-3.76-53.14-49.77-51.26S377.26,616.63,377.26,616.63Z"/><path class="cls-14" d="M402.82,684.88c-5.89-.74-11.93-1.54-18.05-2.39-19.88-22.71-23.13-65.66-23.13-65.66s65.26-11.27,126.43-20.45l7,1.11c27.29,4.35,50.91,8.75,63.78,12.56,45.69,13.54,31.61,66.84,31.61,66.84l-13.83,60.69-19.37-54.11s-5.62,1.13-14.71,2.74l-.91-2.55s-27.23,5.47-58.64,9.47C472.7,692.33,440.71,689.68,402.82,684.88Z"/><path class="cls-15" d="M316.89,592.23s-24.16,92.38,43.05,102.15c55.48,8.06,106.2,11.65,106.2,11.65L436.7,912.85s4.77,13.89,33.8,21.25,41.5-4.45,41.5-4.45l54.58-239.56S580.19,638.58,536,625.5,316.89,592.23,316.89,592.23Z"/><path class="cls-16" d="M371.93,600.34c54.51,7.07,137.83,17.38,164.11,25.16,24.37,7.22,31.14,26.15,32.32,41.66-24.07.24-68.73-2.66-127.75-19.19C400,636.6,376.1,609,371.93,600.34Z"/><path class="cls-9" d="M480.61,334A39.75,39.75,0,0,1,506,354.84c8.66,17.41,30.91,70.79,30.91,70.79l62.41-38.13,25.35,38C592.42,457.2,559.17,485,524.11,506a27.13,27.13,0,0,1-38.39-11.57c-9.16-19.09-20-41.85-20-41.85l1.42-49.91Z"/><path class="cls-17" d="M497.26,506.56a27.1,27.1,0,0,1-11.54-12.13c-9.16-19.09-20-41.85-20-41.85l1.42-49.91,5.33-27.07,7.9-26.78s25.89,31.56,38.16,74.23c6.76,23.55-18,38-19.35,48.5C498.31,477.94,497.65,494.53,497.26,506.56Z"/><path class="cls-18" d="M610.35,404.06l14.32,21.48q-11,10.83-22.24,21a110.83,110.83,0,0,1-22.66-5.65c-15.86-5.7-22.66-16.38-25.43-25.95l25.3-15.46Z"/><path class="cls-19" d="M572.66,340.11a6.8,6.8,0,0,1,5.45-4.21l51.13-6.58a2.12,2.12,0,0,1,1.84.66l5.44,5.8-45.33,89.89a6.83,6.83,0,0,1-4.41,3.54l-45.13,11.48L536,436.38a2.72,2.72,0,0,1-.88-3.19Z"/><path class="cls-20" d="M578.07,345.91a6.83,6.83,0,0,1,5.49-4.21l51.05-6.35a2.15,2.15,0,0,1,2,.84,2.17,2.17,0,0,1,.27,2.13c-6.48,15.31-32.74,77.42-39.4,93.16A6.83,6.83,0,0,1,592,435.6l-48.08,5.85a2.74,2.74,0,0,1-2.87-3.74Z"/><ellipse class="cls-21" cx="586.12" cy="351.6" rx="5.16" ry="3.41" transform="translate(-84.19 485.17) rotate(-42.23)"/><path class="cls-22" d="M417.82,323.42,335,340.88c-3.37,91.51,3.53,183.42-24.71,255.71,0,0,30.79,16,118.4,15.84,60.92-.15,69-24.21,69-24.21-9.82-35.91-13.59-76-4.88-124.71,0,0,21.55-24,21.64-39.28.15-23.67-33.91-90.23-33.91-90.23Z"/><path class="cls-23" d="M381.18,610.74a28.45,28.45,0,0,1-1.08-8.47V575.65c0-23.53,43.16-44.16,107.79-55.61a269,269,0,0,0,9.74,68.18s-8.06,24.06-69,24.21C410.45,612.47,394.71,611.81,381.18,610.74Z"/><path class="cls-17" d="M338.94,404.42,341,391c9.06-6.52,24.41-3.2,19.64,25.71L337,532.81,314.22,596l.09-.8C332.27,538.35,336.47,472.75,338.94,404.42Z"/><path class="cls-24" d="M444.16,433.75s-.07-11.18-9.89-22.69-25.74-10.67-25.74-10.67l-1.18,18.79S426,436.29,444.16,433.75Z"/><path class="cls-25" d="M404.57,393l55.73-41.37s14.51-9.91,31-7.05S527,356.28,527,356.28s8.88,3.74,6.5,8.14-10.25,5.12-15.69,3.88S506,365,506,365s.89,4.51-2.55,6.08a10.63,10.63,0,0,1-7.1.34s1.11,3.61-1.44,6.09a7.63,7.63,0,0,1-5.21,2.36,7.49,7.49,0,0,1-3.22,5.75c-3.1,1.92-15.64-1.37-15.64-1.37l-39,50.45S372.4,427.38,404.57,393Z"/><path class="cls-26" d="M363.64,284.51c-7.75-.94-14.91,8.77-13.59,19.33,0,0-1.27,10.2,16,20.57s29.06,6.37,29.06,6.37l4.38-18.71L386.71,302Z"/><path class="cls-8" d="M489.47,202.94s4.88,13.05,3.09,31.25-13.29,25.16-13.29,25.16l-6.2-50.79,16.4-5.62"/><path class="cls-27" d="M394.57,278.22l-13.12,52.33c8.41,22.15,59.44,23.52,59.9-2.69L439,307.29Z"/><path class="cls-28" d="M405.52,285.4,439,307.29l2.4,20.41c-5.29.6-12.35-.37-21-4.51-28.28-13.57-26.5-40.62-26.5-40.62Z"/><path class="cls-29" d="M608.68,958.37v-383h24.83v383c0,1.71-5.56,3.1-12.41,3.1S608.68,960.08,608.68,958.37Z"/><path class="cls-30" d="M608.68,680.44v-105h24.83v105C628.87,683.29,614.38,682.32,608.68,680.44Z"/><path class="cls-8" d="M846.08,575.42v22.93c0,31-100.81,56.14-225,56.14s-225-25.15-225-56.14V575.42C396.12,544.44,846.08,544.44,846.08,575.42Z"/><path class="cls-31" d="M396.12,575.42c0-31,100.81-56.13,225-56.13s225,25.15,225,56.13-100.81,56.13-225,56.13S396.12,606.4,396.12,575.42Z"/><path class="cls-32" d="M564.63,576.8c0-10.59,40.34-19.18,90-19.18s90,8.59,90,19.18S704.35,596,654.66,596,564.63,587.38,564.63,576.8Z"/><path class="cls-33" d="M560.5,565.44c0-14.39,42.19-26.08,94.16-26.08s94.16,11.69,94.16,26.08-42.19,26.07-94.16,26.07S560.5,579.83,560.5,565.44Z"/><path class="cls-33" d="M466.85,546.73c0-6.78,19.9-12.29,44.41-12.29s44.41,5.51,44.41,12.29S535.77,559,511.26,559,466.85,553.52,466.85,546.73Z"/><ellipse class="cls-34" cx="511.26" cy="546.56" rx="28.08" ry="5.9"/><path class="cls-33" d="M481.34,513.21a10.62,10.62,0,1,1-10.62,10.61A10.61,10.61,0,0,1,481.34,513.21Zm0,4a6.64,6.64,0,1,0,6.64,6.64A6.64,6.64,0,0,0,481.34,517.18Z"/><path class="cls-35" d="M685.71,540.82a205.7,205.7,0,0,1,37.76,6.82l-22.29,26.92L684.84,545Z"/><path class="cls-36" d="M602.56,523.21v-4.62L665,503.17c14.73,4.88,36.16,19.5,36.16,19.5v51.89h-7.53l-43.38-42.12Z"/><path class="cls-36" d="M746.16,267.89V264l52.39-12.93c12.35,4.09,30.32,16.35,30.32,16.35V311h-6.32l-36.37-35.33Z"/><path class="cls-37" d="M602.56,518.47l70-19.73c16,5.29,24.59,13.53,28.63,23.93Z"/><path class="cls-36" d="M657.81,501.21c8.05,0,14.58,2.87,14.58,6.41S668.25,514,654.24,514c-8,0-11-2.87-11-6.41S649.76,501.21,657.81,501.21Z"/><path class="cls-37" d="M746.16,263.91l58.7-16.55c13.39,4.44,20.62,11.34,24,20.07Z"/><path class="cls-38" d="M650.67,500.88s-.32-10.48,7.14-13.18"/><path class="cls-39" d="M785.82,249.28s-.26-8.79,6-11.05"/><path class="cls-40" d="M693.65,527.07v47.49l-87.92-3.72a3.32,3.32,0,0,1-3.17-3.32v-44.3Z"/><path class="cls-40" d="M822.55,271.12V311l-73.21-3.11a3.31,3.31,0,0,1-3.18-3.31V267.89Z"/><polygon class="cls-41" points="602.56 539.09 693.65 542.95 693.65 558.69 602.56 554.83 602.56 539.09"/><polygon class="cls-41" points="746.16 281.2 822.55 284.44 822.55 297.63 746.16 294.4 746.16 281.2"/><path class="cls-42" d="M449.44,174.8c-40.58-10.26-96,39.16-56.9,101.6,42.22,67.43,82.67,41.9,90.16,3.81S485.55,183.93,449.44,174.8Z"/><path class="cls-8" d="M386.35,246.67c31.09-.1,59.16-6.54,77.53-33.35.93,9.3-2.11,18.49-6.48,27.63,15.48-1.93,34.14-18.18,33.53-34.82,0,0-12.31-54.89-77.59-42.23C355.23,175.16,344,240,358,280c8.46,24.17,29.44,27.39,29.44,27.39l7.38-27.12s-4-8-5.81-21.09S386.35,246.67,386.35,246.67Z"/><path class="cls-37" d="M396.76,275.49S380.46,270,382,254.83s12.39-15.62,17.85-11.37c7.06,5.5,5.55,12.19,5.55,12.19"/><path class="cls-9" d="M341.45,340.53s-23.86-3.2-39.69,31.53c-7.16,15.71-25.45,76-38.26,119.31a46.89,46.89,0,0,0,72.76,51.73,3.39,3.39,0,0,0,.5-.34,13.13,13.13,0,0,0,1.37-1.22c8.21-8.35,106-108,106-108-21.45-4.89-35.94-21.8-36.22-43.62L341,447.82S389.41,356.66,341.45,340.53Z"/><path class="cls-43" d="M393.06,402.51c.87,9.17,4.06,22.07,14.29,31.49,8.71,8,17,11.53,23.67,12.89l13.14-13.39c-21.45-4.89-35.94-21.8-36.22-43.62Z"/><path class="cls-37" d="M630.06,351c1.33-4.47,9.82-1.93,9.79,5.69,0,10.22-4.1,42.87-4.1,42.87s-5.57,38.24-31.78,33c-20.37-4.05-29.11-11-29.11-11-4.43-4.08-4.5-10.1,2-10.35-7.05-2.83-6.12-11.64.78-12.36-7.52-3.1-6.28-12.56,1.58-13.15-8.74-3.06-2.56-13.15,6.52-10.21,11.66,3.78,21.22,6,31.72.72C623.87,373,626.51,362.9,630.06,351Z"/><circle class="cls-44" cx="651.87" cy="503.92" r="10.11"/><circle class="cls-44" cx="786.83" cy="251.82" r="8.48"/><path class="cls-45" d="M352.74,436.24l54.67-46.36"/><path class="cls-46" d="M580.09,385.25s17.78,9.85,32.39,6.36"/><path class="cls-46" d="M576.92,398.43s17.78,9.84,32.38,6.35"/><path class="cls-46" d="M575.49,411.29s17.78,9.84,32.39,6.35"/><path class="cls-33" d="M540.69,948.42a38.87,38.87,0,0,0-18.24,8.45l-9.88-5.53c4.78-4.44,10.3-8.2,19-9Z"/><path class="cls-33" d="M726.93,832.09a38.47,38.47,0,0,0-10.48,14.82l-11.32-.15c1.89-5.62,4.6-11,10.56-15.62Z"/><path class="cls-33" d="M557.2,959.44a38.82,38.82,0,0,0-17.48,8.3l-9.87-5.53c4.62-4.29,9.93-8,18.18-8.89Z"/><path class="cls-33" d="M746.9,833.76a38.41,38.41,0,0,0-10.09,14.47l-11.31-.15c1.84-5.48,4.46-10.76,10.11-15.27Z"/><path class="cls-47" d="M704.67,252.51l11.23,3a76.61,76.61,0,1,0,58.19-55.14L771.69,189a88.25,88.25,0,1,1-67,63.51Z"/><path class="cls-46" d="M505.67,364.81s-21.33-8.21-25.78-7.26"/><path class="cls-46" d="M496.82,371.7s-16.11-6.51-19.39-5.77"/><path class="cls-46" d="M489.36,380.58s-16.3-6.85-19.54-6.11"/><path class="cls-9" d="M789.9,187.1v11.63a76.63,76.63,0,1,0,68.32,41.94l10.37-5.26A88.24,88.24,0,1,1,789.9,187.1Z"/><path class="cls-33" d="M510.09,546.73c-20,0-29.81-14.85-28.66-33.05h59.75C539.49,533.37,531.11,546.73,510.09,546.73Z"/><ellipse class="cls-48" cx="511.26" cy="513.68" rx="29.92" ry="5.56"/><ellipse class="cls-34" cx="511.26" cy="513.68" rx="27.6" ry="4.56"/><path class="cls-8" d="M485.68,515.39c4.11-1.66,14-2.84,25.58-2.84s21.47,1.18,25.58,2.84c-4.11,1.67-14,2.85-25.58,2.85S489.79,517.06,485.68,515.39Z"/><path class="cls-49" d="M392.1,248.61s9,4.5,6.89,18.46"/><path class="cls-49" d="M390.54,256.26s7.46-.47,8.23,2.63"/><path class="cls-9" d="M676.1,330.68l-25.9,15.07a3.22,3.22,0,0,0-1.58,2.91,3.18,3.18,0,0,0,1.84,2.75l25.64,12Z"/><path class="cls-50" d="M603.61,350.15l7.74.47"/><path class="cls-50" d="M599.12,357.54l6.44,4.32"/><path class="cls-50" d="M591.85,362.91l3.2,7"/><ellipse class="cls-51" cx="441.07" cy="264.14" rx="7.75" ry="4.5" transform="translate(138.47 679.77) rotate(-84.86)"/><ellipse class="cls-51" cx="469.82" cy="266.08" rx="7.75" ry="4.5" transform="translate(162.71 710.17) rotate(-84.86)"/><path class="cls-52" d="M436.64,293.2c1.45,7.48,10.33,9.09,15,6.4"/><path class="cls-52" d="M457.41,268.58s-.08,9.85-.12,14.26a1.91,1.91,0,0,1-.63,1.41,2,2,0,0,1-1.47.48l-1.83-.18"/></g></svg>